<svg id="check_list-car-file_-car_repair-Clipboard" height="512" viewBox="0 0 64 64" width="512" xmlns="http://www.w3.org/2000/svg" data-name="check list-car-file -car repair-Clipboard"><path d="m7 56h2v2h-2z"/><path d="m11 54h2v2h-2z"/><path d="m55 56h2v2h-2z"/><path d="m51 54h2v2h-2z"/><path d="m61 13h-9v-2a1 1 0 0 0 -1-1h-3.13a4 4 0 0 0 -7.74 0h-3.13a1 1 0 0 0 -1 1v2h-9a1 1 0 0 0 -1 1v6h-9.61a5 5 0 0 0 -4.94 4.21l-1.32 9.79h-.45l-1.75-4.37a1 1 0 0 0 -.93-.63h-4a1 1 0 0 0 -1 1v4a1 1 0 0 0 .84.99l1 .16a5 5 0 0 0 -1.84 3.85v13a1 1 0 0 0 1 1h1v6a2.006 2.006 0 0 0 2 2h8a2.006 2.006 0 0 0 2-2v-6h32v6a2.006 2.006 0 0 0 2 2h8a2.006 2.006 0 0 0 2-2v-6h1a1 1 0 0 0 1-1v-38a1 1 0 0 0 -1-1zm-57 18h2.32l1.09 2.72-3.41-.57zm0 11h2v5h-2zm10 17h-1v-2h-2v2h-5v-6h1v2h2v-2h5zm12-8h-22v-2h22zm-18-4v-5h10v5zm18 0h-6v-5h6zm0-7h-22v-1a3.009 3.009 0 0 1 3-3h19zm0-6h-13.86l1.29-9.49a2.988 2.988 0 0 1 2.96-2.51h9.61zm12-22h3a1 1 0 0 0 1-1 2 2 0 0 1 4 0 1 1 0 0 0 1 1h3v5h-12zm-1 7h14a1 1 0 0 0 1-1h5v30h-26v-30h5a1 1 0 0 0 1 1zm21 40h-5v-2h-2v2h-1v-6h5v2h2v-2h1zm2-8h-32v-36h8v1h-6a1 1 0 0 0 -1 1v32a1 1 0 0 0 1 1h28a1 1 0 0 0 1-1v-32a1 1 0 0 0 -1-1h-6v-1h8z"/><path d="m37 27a1 1 0 0 0 .782-.375l4-5-1.562-1.25-3.427 4.284-2.237-1.491-1.11 1.664 3 2a1 1 0 0 0 .554.168z"/><path d="m37 36a1 1 0 0 0 .782-.375l4-5-1.562-1.25-3.427 4.284-2.237-1.491-1.11 1.664 3 2a1 1 0 0 0 .554.168z"/><path d="m37 45a1 1 0 0 0 .782-.375l4-5-1.562-1.25-3.427 4.284-2.237-1.491-1.11 1.664 3 2a1 1 0 0 0 .554.168z"/><path d="m44 25h11v2h-11z"/><path d="m44 34h11v2h-11z"/><path d="m44 43h11v2h-11z"/></svg>